<?xml version="1.0" encoding="UTF-8"?>
<svg width="766px" height="120px" viewBox="0 0 766 120" version="1.1" xmlns="http://www.w3.org/2000/svg" xmlns:xlink="http://www.w3.org/1999/xlink">
    <!-- Generator: Sketch 49.3 (51167) - http://www.bohemiancoding.com/sketch -->
    <title>logo</title>
    <desc>Created with Sketch.</desc>
    <defs></defs>
    <g id="logo-font" stroke="none" stroke-width="1" fill="none" fill-rule="evenodd">
        <g id="Business-Card" transform="translate(-138.000000, -268.000000)">
            <g id="logo" transform="translate(138.000000, 268.000000)">
                <path d="M59.808,32.112 L17.904,61.632 L59.808,91.008 L48.576,103.968 L0.48,69.264 L0.48,53.856 L48.576,19.152 L59.808,32.112 Z M676.128,0.72 L693.552,0.72 L656.4,119.664 L639.12,119.664 L676.128,0.72 Z M717.168,19.152 L765.264,53.856 L765.264,69.264 L717.168,103.968 L705.936,91.008 L747.696,61.632 L705.936,32.112 L717.168,19.152 Z" id="&lt;-Nocode/&gt;" fill="#FF5301"></path>
                <polygon id="Path" fill="#131A22" points="160.464 98.496 163.056 98.496 163.056 7.2 182.064 7.2 182.064 108 144.912 108 133.104 16.704 130.512 16.704 130.512 108 111.504 108 111.504 7.2 148.656 7.2"></polygon>
                <path d="M272.064,73.152 C272.064,79.1040298 271.05601,84.3599772 269.04,88.92 C267.02399,93.4800228 264.288017,97.3199844 260.832,100.44 C257.375983,103.560016 253.416022,105.935992 248.952,107.568 C244.487978,109.200008 239.808024,110.016 234.912,110.016 C230.015976,110.016 225.336022,109.200008 220.872,107.568 C216.407978,105.935992 212.448017,103.560016 208.992,100.44 C205.535983,97.3199844 202.80001,93.4800228 200.784,88.92 C198.76799,84.3599772 197.76,79.1040298 197.76,73.152 L197.76,71.424 C197.76,65.5679707 198.76799,60.3600228 200.784,55.8 C202.80001,51.2399772 205.535983,47.3760158 208.992,44.208 C212.448017,41.0399842 216.407978,38.6400082 220.872,37.008 C225.336022,35.3759918 230.015976,34.56 234.912,34.56 C239.808024,34.56 244.487978,35.3759918 248.952,37.008 C253.416022,38.6400082 257.375983,41.0399842 260.832,44.208 C264.288017,47.3760158 267.02399,51.2399772 269.04,55.8 C271.05601,60.3600228 272.064,65.5679707 272.064,71.424 L272.064,73.152 Z M234.912,92.736 C237.504013,92.736 239.951988,92.3040043 242.256,91.44 C244.560012,90.5759957 246.575991,89.3280082 248.304,87.696 C250.032009,86.0639918 251.399995,84.0720118 252.408,81.72 C253.416005,79.3679882 253.92,76.7040149 253.92,73.728 L253.92,70.848 C253.92,67.8719851 253.416005,65.2080118 252.408,62.856 C251.399995,60.5039882 250.032009,58.5120082 248.304,56.88 C246.575991,55.2479918 244.560012,54.0000043 242.256,53.136 C239.951988,52.2719957 237.504013,51.84 234.912,51.84 C232.319987,51.84 229.872012,52.2719957 227.568,53.136 C225.263988,54.0000043 223.248009,55.2479918 221.52,56.88 C219.791991,58.5120082 218.424005,60.5039882 217.416,62.856 C216.407995,65.2080118 215.904,67.8719851 215.904,70.848 L215.904,73.728 C215.904,76.7040149 216.407995,79.3679882 217.416,81.72 C218.424005,84.0720118 219.791991,86.0639918 221.52,87.696 C223.248009,89.3280082 225.263988,90.5759957 227.568,91.44 C229.872012,92.3040043 232.319987,92.736 234.912,92.736 Z" id="Combined-Shape" fill="#131A22"></path>
                <path d="M359.904,81.792 C358.271992,90.2400422 354.40803,97.0559741 348.312,102.24 C342.21597,107.424026 334.080051,110.016 323.904,110.016 C318.623974,110.016 313.704023,109.200008 309.144,107.568 C304.583977,105.935992 300.624017,103.584015 297.264,100.512 C293.903983,97.4399846 291.26401,93.6480226 289.344,89.136 C287.42399,84.6239774 286.464,79.4880288 286.464,73.728 L286.464,72 C286.464,66.2399712 287.42399,61.056023 289.344,56.448 C291.26401,51.839977 293.927983,47.9040163 297.336,44.64 C300.744017,41.3759837 304.727977,38.8800086 309.288,37.152 C313.848023,35.4239914 318.719974,34.56 323.904,34.56 C333.88805,34.56 341.975969,37.1519741 348.168,42.336 C354.360031,47.5200259 358.271992,54.3359578 359.904,62.784 L342.048,67.392 C341.471997,63.1679789 339.648015,59.5200154 336.576,56.448 C333.503985,53.3759846 329.184028,51.84 323.616,51.84 C321.023987,51.84 318.576012,52.3199952 316.272,53.28 C313.967988,54.2400048 311.952009,55.6079911 310.224,57.384 C308.495991,59.1600089 307.128005,61.3199873 306.12,63.864 C305.111995,66.4080127 304.608,69.2639842 304.608,72.432 L304.608,73.296 C304.608,76.4640158 305.111995,79.2719878 306.12,81.72 C307.128005,84.1680122 308.495991,86.2079918 310.224,87.84 C311.952009,89.4720082 313.967988,90.6959959 316.272,91.512 C318.576012,92.3280041 321.023987,92.736 323.616,92.736 C329.184028,92.736 333.431985,91.3440139 336.36,88.56 C339.288015,85.7759861 341.183996,82.0320235 342.048,77.328 L359.904,81.792 Z" id="Path" fill="#131A22"></path>
                <path d="M448.32,73.152 C448.32,79.1040298 447.31201,84.3599772 445.296,88.92 C443.27999,93.4800228 440.544017,97.3199844 437.088,100.44 C433.631983,103.560016 429.672022,105.935992 425.208,107.568 C420.743978,109.200008 416.064024,110.016 411.168,110.016 C406.271976,110.016 401.592022,109.200008 397.128,107.568 C392.663978,105.935992 388.704017,103.560016 385.248,100.44 C381.791983,97.3199844 379.05601,93.4800228 377.04,88.92 C375.02399,84.3599772 374.016,79.1040298 374.016,73.152 L374.016,71.424 C374.016,65.5679707 375.02399,60.3600228 377.04,55.8 C379.05601,51.2399772 381.791983,47.3760158 385.248,44.208 C388.704017,41.0399842 392.663978,38.6400082 397.128,37.008 C401.592022,35.3759918 406.271976,34.56 411.168,34.56 C416.064024,34.56 420.743978,35.3759918 425.208,37.008 C429.672022,38.6400082 433.631983,41.0399842 437.088,44.208 C440.544017,47.3760158 443.27999,51.2399772 445.296,55.8 C447.31201,60.3600228 448.32,65.5679707 448.32,71.424 L448.32,73.152 Z M411.168,92.736 C413.760013,92.736 416.207988,92.3040043 418.512,91.44 C420.816012,90.5759957 422.831991,89.3280082 424.56,87.696 C426.288009,86.0639918 427.655995,84.0720118 428.664,81.72 C429.672005,79.3679882 430.176,76.7040149 430.176,73.728 L430.176,70.848 C430.176,67.8719851 429.672005,65.2080118 428.664,62.856 C427.655995,60.5039882 426.288009,58.5120082 424.56,56.88 C422.831991,55.2479918 420.816012,54.0000043 418.512,53.136 C416.207988,52.2719957 413.760013,51.84 411.168,51.84 C408.575987,51.84 406.128012,52.2719957 403.824,53.136 C401.519988,54.0000043 399.504009,55.2479918 397.776,56.88 C396.047991,58.5120082 394.680005,60.5039882 393.672,62.856 C392.663995,65.2080118 392.16,67.8719851 392.16,70.848 L392.16,73.728 C392.16,76.7040149 392.663995,79.3679882 393.672,81.72 C394.680005,84.0720118 396.047991,86.0639918 397.776,87.696 C399.504009,89.3280082 401.519988,90.5759957 403.824,91.44 C406.128012,92.3040043 408.575987,92.736 411.168,92.736 Z" id="Combined-Shape" fill="#131A22"></path>
                <path d="M517.728,97.632 L515.136,97.632 C514.367996,99.2640082 513.432006,100.823993 512.328,102.312 C511.223994,103.800007 509.784009,105.119994 508.008,106.272 C506.231991,107.424006 504.120012,108.335997 501.672,109.008 C499.223988,109.680003 496.272017,110.016 492.816,110.016 C488.399978,110.016 484.296019,109.224008 480.504,107.64 C476.711981,106.055992 473.400014,103.704016 470.568,100.584 C467.735986,97.4639844 465.528008,93.6480226 463.944,89.136 C462.359992,84.6239774 461.568,79.4400293 461.568,73.584 L461.568,70.992 C461.568,65.2319712 462.407992,60.0960226 464.088,55.584 C465.768008,51.0719774 468.071985,47.2560156 471,44.136 C473.928015,41.0159844 477.335981,38.6400082 481.224,37.008 C485.112019,35.3759918 489.215978,34.56 493.536,34.56 C499.296029,34.56 503.855983,35.6399892 507.216,37.8 C510.576017,39.9600108 513.21599,43.0079803 515.136,46.944 L517.728,46.944 L517.728,7.2 L535.872,7.2 L535.872,108 L517.728,108 L517.728,97.632 Z M498.72,92.736 C504.384028,92.736 508.967982,90.936018 512.472,87.336 C515.976018,83.735982 517.728,79.0080293 517.728,73.152 L517.728,71.424 C517.728,65.5679707 515.976018,60.840018 512.472,57.24 C508.967982,53.639982 504.384028,51.84 498.72,51.84 C493.055972,51.84 488.472018,53.5919825 484.968,57.096 C481.463982,60.6000175 479.712,65.3759698 479.712,71.424 L479.712,73.152 C479.712,79.2000302 481.463982,83.9759825 484.968,87.48 C488.472018,90.9840175 493.055972,92.736 498.72,92.736 Z" id="Combined-Shape" fill="#131A22"></path>
                <path d="M570.576,78.192 C570.672,80.3040106 571.175995,82.2479911 572.088,84.024 C573.000005,85.8000089 574.247992,87.3359935 575.832,88.632 C577.416008,89.9280065 579.23999,90.9359964 581.304,91.656 C583.36801,92.3760036 585.551988,92.736 587.856,92.736 C592.368023,92.736 595.823988,91.9440079 598.224,90.36 C600.624012,88.7759921 602.351995,86.880011 603.408,84.672 L618.96,93.312 C618.095996,95.1360091 616.896008,97.0319902 615.36,99 C613.823992,100.96801 611.832012,102.767992 609.384,104.4 C606.935988,106.032008 603.960018,107.375995 600.456,108.432 C596.951982,109.488005 592.848024,110.016 588.144,110.016 C582.767973,110.016 577.872022,109.152009 573.456,107.424 C569.039978,105.695991 565.224016,103.200016 562.008,99.936 C558.791984,96.6719837 556.296009,92.6880235 554.52,87.984 C552.743991,83.2799765 551.856,77.9520298 551.856,72 L551.856,71.136 C551.856,65.6639726 552.791991,60.6720226 554.664,56.16 C556.536009,51.6479774 559.103984,47.8080158 562.368,44.64 C565.632016,41.4719842 569.447978,39.0000089 573.816,37.224 C578.184022,35.4479911 582.863975,34.56 587.856,34.56 C594.000031,34.56 599.279978,35.6399892 603.696,37.8 C608.112022,39.9600108 611.759986,42.6959834 614.64,46.008 C617.520014,49.3200166 619.631993,52.9679801 620.976,56.952 C622.320007,60.9360199 622.992,64.7999813 622.992,68.544 L622.992,78.192 L570.576,78.192 Z M587.712,50.976 C583.103977,50.976 579.360014,52.1519882 576.48,54.504 C573.599986,56.8560118 571.728004,59.5679846 570.864,62.64 L604.56,62.64 C603.983997,59.2799832 602.184015,56.496011 599.16,54.288 C596.135985,52.079989 592.320023,50.976 587.712,50.976 Z" id="Combined-Shape" fill="#131A22"></path>
            </g>
        </g>
    </g>
</svg>